<svg xmlns="http://www.w3.org/2000/svg" xmlns:xlink="http://www.w3.org/1999/xlink" width="1920" zoomAndPan="magnify" viewBox="0 0 1440 809.999993" height="1080" preserveAspectRatio="xMidYMid meet" version="1.0"><defs><clipPath id="a6aee70768"><path d="M 334.742188 0 L 1104.992188 0 L 1104.992188 810 L 334.742188 810 Z M 334.742188 0 " clip-rule="nonzero"/></clipPath></defs><rect x="-144" width="1728" fill="#ffffff" y="-80.999999" height="971.999992" fill-opacity="1"/><rect x="-144" width="1728" fill="#ffffff" y="-80.999999" height="971.999992" fill-opacity="1"/><path fill="#004aad" d="M 720.019531 200.484375 C 634.90625 200.484375 565.90625 272.953125 565.90625 362.347656 C 565.90625 451.75 634.90625 524.21875 720.019531 524.21875 C 805.136719 524.21875 874.125 451.75 874.125 362.347656 C 874.125 272.953125 805.136719 200.484375 720.019531 200.484375 " fill-opacity="1" fill-rule="nonzero"/><g clip-path="url(#a6aee70768)"><path fill="#004aad" d="M 975.96875 684.367188 C 941.835938 601.050781 870.183594 548.941406 719.785156 548.941406 C 569.585938 548.941406 497.933594 600.914062 463.746094 684.039062 C 394.175781 613.523438 350.898438 514.570312 350.898438 405 C 350.898438 190.871094 516.160156 17.289062 720.019531 17.289062 C 923.882812 17.289062 1089.144531 190.871094 1089.144531 405 C 1089.144531 514.746094 1045.730469 613.832031 975.96875 684.367188 Z M 720.019531 0.328125 C 507.238281 0.328125 334.742188 181.503906 334.742188 405 C 334.742188 521.894531 381.929688 627.214844 457.398438 701.09375 C 526.207031 768.457031 618.527344 809.671875 720.019531 809.671875 C 821.335938 809.671875 913.519531 768.59375 982.300781 701.429688 C 1057.957031 627.542969 1105.296875 522.074219 1105.296875 405 C 1105.296875 181.503906 932.796875 0.328125 720.019531 0.328125 " fill-opacity="1" fill-rule="nonzero"/></g></svg>