<svg xmlns="http://www.w3.org/2000/svg" xmlns:xlink="http://www.w3.org/1999/xlink" width="1920" zoomAndPan="magnify" viewBox="0 0 1440 809.999993" height="1080" preserveAspectRatio="xMidYMid meet" version="1.0"><rect x="-144" width="1728" fill="#ffffff" y="-80.999999" height="971.999992" fill-opacity="1"/><rect x="-144" width="1728" fill="#000000" y="-80.999999" height="971.999992" fill-opacity="1"/><path fill="#ffffff" d="M 964.910156 405 L 1125 405 L 1125 459.84375 L 1057.90625 485.667969 C 1049.40625 521.425781 1035.171875 555.523438 1015.96875 586.863281 L 1045.105469 652.636719 L 967.636719 730.105469 L 901.863281 700.96875 C 870.632812 720.28125 836.425781 734.40625 800.667969 742.90625 L 774.84375 810 L 665.265625 810 L 639.441406 742.90625 C 603.574219 734.40625 569.476562 720.171875 538.136719 700.96875 L 472.363281 730.105469 L 394.894531 652.636719 L 424.140625 586.863281 C 404.828125 555.632812 390.703125 521.425781 382.09375 485.667969 L 315 459.84375 L 315 350.265625 L 382.09375 324.441406 C 390.703125 288.574219 404.828125 254.476562 424.140625 223.136719 L 394.894531 157.363281 L 472.363281 79.894531 L 538.136719 109.140625 C 569.476562 89.828125 603.574219 75.703125 639.332031 67.207031 L 665.265625 0 L 720.011719 0 L 720.011719 160.089844 L 720 160.089844 C 585.132812 160.089844 475.089844 270.132812 475.089844 405 C 475.089844 539.867188 585.132812 649.910156 720 649.910156 C 854.867188 649.910156 964.910156 539.867188 964.910156 405 Z M 797.800781 172.792969 C 795.578125 172.054688 793.761719 170.425781 792.789062 168.300781 C 791.816406 166.167969 791.769531 163.730469 792.667969 161.566406 C 800.304688 143.109375 818.320312 99.613281 825.503906 82.269531 C 827.21875 78.125 831.878906 76.050781 836.109375 77.542969 C 845.355469 80.84375 854.425781 84.523438 863.300781 88.566406 C 867.417969 90.457031 869.304688 95.269531 867.570312 99.457031 C 860.34375 116.910156 842.335938 160.386719 834.765625 178.660156 C 833.882812 180.792969 832.160156 182.472656 830.003906 183.304688 C 827.847656 184.136719 825.445312 184.042969 823.359375 183.054688 C 815.082031 179.167969 806.550781 175.738281 797.800781 172.792969 Z M 1043.375 278.035156 C 1045.050781 282.3125 1042.992188 287.144531 1038.75 288.902344 C 1021.164062 296.1875 977.6875 314.199219 959.585938 321.695312 C 957.480469 322.566406 955.113281 322.550781 953.019531 321.652344 C 950.929688 320.75 949.289062 319.042969 948.476562 316.914062 C 945.144531 308.308594 941.335938 299.933594 937.082031 291.824219 C 935.972656 289.726562 935.796875 287.257812 936.597656 285.023438 C 937.402344 282.789062 939.113281 280.996094 941.304688 280.085938 C 959.9375 272.359375 1003.460938 254.335938 1020.675781 247.203125 C 1024.765625 245.507812 1029.46875 247.261719 1031.453125 251.222656 C 1035.785156 259.960938 1039.769531 268.90625 1043.375 278.035156 Z M 878.550781 218.597656 C 876.746094 217.074219 875.664062 214.867188 875.566406 212.511719 C 875.464844 210.15625 876.359375 207.863281 878.027344 206.195312 C 892.210938 192 925.480469 158.730469 938.695312 145.515625 C 941.84375 142.363281 946.902344 142.207031 950.246094 145.152344 C 957.558594 151.648438 964.601562 158.441406 971.347656 165.519531 C 974.488281 168.835938 974.417969 174.054688 971.1875 177.285156 C 957.777344 190.699219 924.535156 223.941406 910.636719 237.839844 C 909.019531 239.460938 906.808594 240.351562 904.519531 240.308594 C 902.230469 240.265625 900.054688 239.296875 898.496094 237.617188 C 892.210938 230.914062 885.546875 224.5625 878.550781 218.597656 Z M 720 218.023438 C 823.273438 218.023438 906.976562 301.726562 906.976562 405 C 906.976562 508.273438 823.273438 591.976562 720 591.976562 C 616.726562 591.976562 533.023438 508.273438 533.023438 405 C 533.023438 301.726562 616.726562 218.023438 720 218.023438 Z M 842.355469 508.070312 C 865.832031 480.230469 879.976562 444.269531 879.976562 405 C 879.976562 316.640625 808.359375 245.023438 720 245.023438 C 631.640625 245.023438 560.023438 316.640625 560.023438 405 C 560.023438 444.269531 574.167969 480.230469 597.644531 508.070312 C 616.125 458.421875 663.945312 423.050781 720 423.050781 C 776.054688 423.050781 823.875 458.421875 842.355469 508.070312 Z M 720 406.175781 C 683.671875 406.175781 653.96875 376.472656 653.96875 340.144531 C 653.96875 303.8125 683.671875 274.113281 720 274.113281 C 756.328125 274.113281 786.03125 303.8125 786.03125 340.144531 C 786.03125 376.472656 756.328125 406.175781 720 406.175781 Z M 720 406.175781 " fill-opacity="1" fill-rule="evenodd"/></svg>