<?xml version="1.0" encoding="utf-8"?>
<!-- Generator: Adobe Illustrator 28.0.0, SVG Export Plug-In . SVG Version: 6.00 Build 0)  -->
<svg version="1.1" id="Layer_1" xmlns="http://www.w3.org/2000/svg" xmlns:xlink="http://www.w3.org/1999/xlink" x="0px" y="0px"
	 viewBox="0 0 1080 1080" style="enable-background:new 0 0 1080 1080;" xml:space="preserve">
<style type="text/css">
	.st0{fill-rule:evenodd;clip-rule:evenodd;fill:#FFFFFF;}
</style>
<path class="st0" d="M866.5,540H1080v73.1l-89.5,34.4c-11.3,47.7-30.3,93.1-55.9,134.9l38.8,87.7L870.2,973.5l-87.7-38.8
	c-41.6,25.8-87.2,44.6-134.9,55.9l-34.4,89.5H467l-34.4-89.5c-47.8-11.3-93.3-30.3-135.1-55.9l-87.7,38.8L106.5,870.2l39-87.7
	c-25.8-41.6-44.6-87.2-56.1-134.9L0,613.1V467l89.5-34.4c11.5-47.8,30.3-93.3,56.1-135.1l-39-87.7l103.3-103.3l87.7,39
	c41.8-25.8,87.2-44.6,134.9-55.9L467,0h73v213.5h0c-179.8,0-326.5,146.7-326.5,326.5S360.2,866.5,540,866.5S866.5,719.8,866.5,540z
	 M643.7,230.4c-3-1-5.4-3.2-6.7-6c-1.3-2.8-1.4-6.1-0.2-9c10.2-24.6,34.2-82.6,43.8-105.7c2.3-5.5,8.5-8.3,14.1-6.3
	c12.3,4.4,24.4,9.3,36.3,14.7c5.5,2.5,8,8.9,5.7,14.5c-9.6,23.3-33.6,81.2-43.7,105.6c-1.2,2.8-3.5,5.1-6.3,6.2s-6.1,1-8.9-0.3
	C666.8,238.9,655.4,234.3,643.7,230.4z M971.2,370.7c2.2,5.7-0.5,12.1-6.2,14.5c-23.4,9.7-81.4,33.7-105.6,43.7
	c-2.8,1.2-6,1.1-8.8-0.1c-2.8-1.2-5-3.5-6.1-6.3c-4.4-11.5-9.5-22.6-15.2-33.5c-1.5-2.8-1.7-6.1-0.6-9.1c1.1-3,3.4-5.4,6.3-6.6
	c24.8-10.3,82.9-34.3,105.8-43.8c5.5-2.3,11.7,0.1,14.4,5.4C961,346.6,966.4,358.5,971.2,370.7z M751.4,291.5c-2.4-2-3.8-5-4-8.1
	c-0.1-3.1,1.1-6.2,3.3-8.4c18.9-18.9,63.3-63.3,80.9-80.9c4.2-4.2,10.9-4.4,15.4-0.5c9.8,8.7,19.1,17.7,28.1,27.2
	c4.2,4.4,4.1,11.4-0.2,15.7c-17.9,17.9-62.2,62.2-80.7,80.7c-2.2,2.2-5.1,3.3-8.2,3.3s-6-1.3-8-3.6
	C769.6,307.9,760.7,299.4,751.4,291.5z M540,290.7c137.7,0,249.3,111.6,249.3,249.3S677.7,789.3,540,789.3S290.7,677.7,290.7,540
	S402.3,290.7,540,290.7z M703.1,677.4c31.3-37.1,50.2-85.1,50.2-137.4c0-117.8-95.5-213.3-213.3-213.3S326.7,422.2,326.7,540
	c0,52.4,18.9,100.3,50.2,137.4c24.6-66.2,88.4-113.4,163.1-113.4S678.5,611.2,703.1,677.4z M540,541.6c-48.4,0-88-39.6-88-88
	c0-48.4,39.6-88,88-88s88,39.6,88,88C628,502,588.4,541.6,540,541.6z"/>
</svg>
