<?xml version="1.0" encoding="utf-8"?>
<!-- Generator: Adobe Illustrator 28.0.0, SVG Export Plug-In . SVG Version: 6.00 Build 0)  -->
<svg version="1.1" id="Layer_1" xmlns="http://www.w3.org/2000/svg" xmlns:xlink="http://www.w3.org/1999/xlink" x="0px" y="0px"
	 viewBox="0 0 1028.4 1080" style="enable-background:new 0 0 1028.4 1080;" xml:space="preserve">
<style type="text/css">
	.st0{fill:#004AAD;}
	.st1{clip-path:url(#SVGID_00000155118755857206411880000007733382230355651773_);}
</style>
<path class="st0" d="M514.1,267.3c-113.5,0-205.5,96.6-205.5,215.8c0,119.2,92,215.8,205.5,215.8c113.5,0,205.5-96.6,205.5-215.8
	C719.5,363.9,627.6,267.3,514.1,267.3"/>
<g>
	<defs>
		<rect id="SVGID_1_" x="0.4" y="0" width="1027" height="1080"/>
	</defs>
	<clipPath id="SVGID_00000049909794732759896150000014124241109143907004_">
		<use xlink:href="#SVGID_1_"  style="overflow:visible;"/>
	</clipPath>
	<g style="clip-path:url(#SVGID_00000049909794732759896150000014124241109143907004_);">
		<path class="st0" d="M855.3,912.5c-45.5-111.1-141-180.6-341.6-180.6c-200.3,0-295.8,69.3-341.4,180.1
			C79.6,818,21.9,686.1,21.9,540c0-285.5,220.3-516.9,492.2-516.9c271.8,0,492.2,231.4,492.2,516.9
			C1006.2,686.3,948.3,818.4,855.3,912.5z M514.1,0.4C230.4,0.4,0.4,242,0.4,540c0,155.9,62.9,296.3,163.5,394.8
			c91.7,89.8,214.8,144.8,350.2,144.8c135.1,0,258-54.8,349.7-144.3c100.9-98.5,164-239.1,164-395.2C1027.8,242,797.8,0.4,514.1,0.4
			"/>
	</g>
</g>
</svg>
