<?xml version="1.0" encoding="utf-8"?>
<!-- Generator: Adobe Illustrator 28.0.0, SVG Export Plug-In . SVG Version: 6.00 Build 0)  -->
<svg version="1.1" id="Layer_1" xmlns="http://www.w3.org/2000/svg" xmlns:xlink="http://www.w3.org/1999/xlink" x="0px" y="0px"
	 viewBox="0 0 741.4 1080" style="enable-background:new 0 0 741.4 1080;" xml:space="preserve">
<style type="text/css">
	.st0{fill-rule:evenodd;clip-rule:evenodd;fill:#3A86FF;}
	.st1{fill-rule:evenodd;clip-rule:evenodd;fill:#69B6F9;}
	.st2{clip-path:url(#SVGID_00000102523366499336326430000008943183501286574248_);}
	.st3{clip-path:url(#SVGID_00000067207025365799896180000012971952476943507885_);}
	.st4{fill:#69B6F9;}
</style>
<path class="st0" d="M370.7,0l95.6,95.7v155.8l-95.6-95.7L275,251.5V95.7L370.7,0z M370.7,202.9l95.6,95.7v553.9l-95.8,95.7
	L275,852.5V298.6L370.7,202.9z"/>
<path class="st1" d="M505.2,311.6l178.7,178.7c2.4,2.4,4.7,4.8,6.9,7.2c2.2,2.5,4.4,5,6.5,7.6c2.1,2.6,4.1,5.2,6.1,7.9
	c2,2.7,3.9,5.4,5.7,8.2s3.6,5.6,5.3,8.5s3.3,5.8,4.8,8.7c1.5,3,3,5.9,4.4,9c1.4,3,2.7,6.1,3.9,9.2c1.2,3.1,2.4,6.2,3.5,9.4
	c1.1,3.2,2.1,6.3,3,9.5c0.9,3.2,1.7,6.4,2.5,9.7c0.7,3.2,1.4,6.5,2,9.8c0.6,3.3,1.1,6.6,1.5,9.9c0.4,3.3,0.7,6.6,1,9.9
	c0.2,3.3,0.4,6.7,0.5,10c0.1,3.3,0.1,6.7,0,10c-0.1,3.3-0.3,6.7-0.5,10c-0.3,3.3-0.6,6.6-1,9.9c-0.4,3.3-0.9,6.6-1.5,9.9
	c-0.6,3.3-1.3,6.5-2,9.8c-0.8,3.2-1.6,6.5-2.5,9.7c-0.9,3.2-1.9,6.4-3,9.5c-1.1,3.2-2.3,6.3-3.5,9.4c-1.2,3.1-2.6,6.1-4,9.2
	c-1.4,3-2.9,6-4.4,9c-1.6,2.9-3.2,5.9-4.9,8.7s-3.5,5.7-5.3,8.5c-1.8,2.8-3.8,5.5-5.7,8.2c-2,2.7-4,5.3-6.2,7.9
	c-2.1,2.6-4.3,5.1-6.5,7.6c-2.2,2.5-4.6,4.9-6.9,7.2s-4.8,4.6-7.3,6.8l-305.2,305.2L65.5,775.9c-2.5-2.2-4.9-4.5-7.3-6.8
	c-2.4-2.3-4.7-4.8-6.9-7.2c-2.2-2.5-4.4-5-6.5-7.6c-2.1-2.6-4.2-5.2-6.2-7.9c-2-2.7-3.9-5.4-5.8-8.2c-1.8-2.8-3.6-5.6-5.3-8.5
	c-1.7-2.9-3.3-5.8-4.9-8.7c-1.6-2.9-3-5.9-4.4-9c-1.4-3-2.7-6.1-4-9.2c-1.2-3.1-2.4-6.2-3.5-9.4c-1.1-3.2-2.1-6.3-3-9.5
	c-0.9-3.2-1.8-6.4-2.5-9.7c-0.8-3.2-1.4-6.5-2-9.8c-0.6-3.3-1.1-6.6-1.5-9.9c-0.4-3.3-0.8-6.6-1-9.9c-0.3-3.3-0.4-6.7-0.5-10
	c-0.1-3.3-0.1-6.7,0-10c0.1-3.3,0.2-6.7,0.5-10s0.6-6.6,1-9.9c0.4-3.3,0.9-6.6,1.5-9.9s1.2-6.5,2-9.8c0.7-3.2,1.6-6.5,2.5-9.7
	c0.9-3.2,1.9-6.4,3-9.5c1.1-3.2,2.2-6.3,3.5-9.4c1.2-3.1,2.5-6.2,3.9-9.2c1.4-3,2.8-6,4.4-9c1.5-3,3.2-5.9,4.8-8.7
	c1.7-2.9,3.4-5.7,5.3-8.5c1.8-2.8,3.7-5.5,5.7-8.2c2-2.7,4-5.3,6.1-7.9c2.1-2.6,4.3-5.1,6.5-7.6c2.2-2.5,4.5-4.9,6.9-7.2
	l178.7-178.7v80.5l-40.6,40.6l-97.5,97.6c-1.7,1.7-3.4,3.4-5,5.2c-1.6,1.8-3.2,3.6-4.7,5.5c-1.5,1.9-3,3.8-4.4,5.7
	c-1.4,1.9-2.8,3.9-4.1,5.9c-1.3,2-2.6,4.1-3.8,6.1c-1.2,2.1-2.4,4.2-3.5,6.3s-2.2,4.3-3.2,6.5c-1,2.2-1.9,4.4-2.8,6.6
	c-0.9,2.2-1.7,4.5-2.5,6.8c-0.8,2.3-1.5,4.6-2.1,6.9c-0.6,2.3-1.2,4.7-1.8,7c-0.5,2.3-1,4.7-1.4,7.1c-0.4,2.4-0.8,4.8-1,7.1
	s-0.5,4.8-0.7,7.2c-0.2,2.4-0.2,4.8-0.3,7.2c0,2.4,0,4.8,0.1,7.2c0.1,2.4,0.2,4.8,0.5,7.2c0.2,2.4,0.5,4.8,0.8,7.2
	c0.3,2.4,0.7,4.8,1.2,7.1c0.5,2.4,1,4.7,1.6,7c0.6,2.3,1.2,4.7,1.9,7c0.7,2.3,1.5,4.6,2.3,6.8c0.8,2.3,1.7,4.5,2.6,6.7
	s1.9,4.4,3,6.6c1,2.2,2.2,4.3,3.3,6.4c1.2,2.1,2.4,4.2,3.6,6.2c1.3,2,2.6,4.1,4,6c1.4,2,2.8,3.9,4.3,5.8c1.5,1.9,3,3.8,4.6,5.6
	c1.6,1.8,3.2,3.6,4.8,5.4c1.7,1.7,3.4,3.4,5.1,5.1c1.8,1.7,3.5,3.3,5.4,4.8l264.9,264.9l174.5-174.5l90.5-90.5
	c1.8-1.6,3.6-3.2,5.4-4.8c1.7-1.7,3.4-3.3,5.1-5.1c1.7-1.7,3.3-3.5,4.8-5.3c1.6-1.8,3.1-3.7,4.5-5.6c1.5-1.9,2.9-3.8,4.3-5.8
	c1.4-2,2.7-4,4-6c1.3-2,2.5-4.1,3.6-6.2c1.2-2.1,2.3-4.2,3.3-6.4c1.1-2.2,2-4.3,3-6.6c0.9-2.2,1.8-4.4,2.6-6.7
	c0.8-2.3,1.6-4.5,2.3-6.8s1.3-4.6,1.9-6.9c0.6-2.3,1.1-4.7,1.6-7c0.5-2.4,0.9-4.7,1.2-7.1s0.6-4.8,0.8-7.2s0.4-4.8,0.5-7.2
	c0.1-2.4,0.1-4.8,0.1-7.2c0-2.4-0.1-4.8-0.3-7.2c-0.2-2.4-0.4-4.8-0.6-7.2c-0.3-2.4-0.6-4.8-1-7.1c-0.4-2.4-0.9-4.7-1.4-7.1
	c-0.5-2.3-1.1-4.7-1.7-7s-1.3-4.6-2.1-6.9c-0.8-2.3-1.6-4.5-2.5-6.8c-0.9-2.2-1.8-4.4-2.8-6.6c-1-2.2-2-4.3-3.1-6.5
	c-1.1-2.1-2.3-4.2-3.5-6.3c-1.2-2.1-2.5-4.1-3.8-6.1c-1.3-2-2.7-4-4.1-5.9c-1.4-1.9-2.9-3.8-4.4-5.7c-1.5-1.9-3.1-3.7-4.7-5.5
	s-3.3-3.5-5-5.2l-97.8-97.8l-40.7-40.6V311.6z"/>
<g>
	<defs>
		<rect id="SVGID_1_" x="-0.1" y="310.7" width="742.6" height="769.3"/>
	</defs>
	<clipPath id="SVGID_00000002371549242713164990000014989033799029287335_">
		<use xlink:href="#SVGID_1_"  style="overflow:visible;"/>
	</clipPath>
	<g style="clip-path:url(#SVGID_00000002371549242713164990000014989033799029287335_);">
		<g>
			<defs>
				<path id="SVGID_00000179606086485864951460000013452641078138751394_" d="M505.2,311.6l178.7,178.7c4.7,4.7,9.2,9.7,13.4,14.8
					c4.2,5.2,8.2,10.5,11.8,16.1c3.7,5.6,7,11.3,10.1,17.2c3.1,5.9,5.9,12,8.3,18.2c2.5,6.2,4.6,12.5,6.4,18.9
					c1.8,6.4,3.3,12.9,4.5,19.5c1.2,6.6,2,13.2,2.5,19.8c0.5,6.7,0.6,13.3,0.5,20c-0.2,6.7-0.7,13.3-1.6,19.9
					c-0.9,6.6-2.1,13.2-3.6,19.7c-1.5,6.5-3.4,12.9-5.6,19.2c-2.2,6.3-4.7,12.5-7.5,18.5c-2.8,6.1-5.9,11.9-9.3,17.7
					c-3.4,5.7-7.1,11.3-11.1,16.6c-4,5.4-8.2,10.5-12.7,15.4c-4.5,4.9-9.2,9.6-14.2,14.1l-305.2,305.2L65.5,775.9
					c-5-4.4-9.7-9.1-14.2-14.1c-4.5-4.9-8.7-10.1-12.7-15.4c-4-5.4-7.7-10.9-11.1-16.6c-3.4-5.7-6.5-11.6-9.3-17.7
					c-2.8-6-5.3-12.2-7.5-18.5c-2.2-6.3-4-12.7-5.6-19.2c-1.5-6.5-2.7-13-3.6-19.7c-0.9-6.6-1.4-13.2-1.6-19.9
					c-0.2-6.7,0-13.3,0.5-20s1.3-13.3,2.5-19.8s2.7-13.1,4.5-19.5c1.8-6.4,4-12.7,6.4-18.9c2.5-6.2,5.2-12.3,8.3-18.2
					c3.1-5.9,6.5-11.7,10.1-17.2c3.7-5.6,7.6-10.9,11.8-16.1c4.2-5.2,8.7-10.1,13.4-14.8l178.7-178.7v80.5l-40.6,40.6l-97.5,97.6
					c-3.4,3.4-6.7,7-9.7,10.7c-3,3.7-5.9,7.6-8.6,11.6c-2.6,4-5.1,8.2-7.3,12.4c-2.2,4.3-4.2,8.7-6,13.1c-1.8,4.5-3.3,9-4.6,13.7
					c-1.3,4.6-2.3,9.3-3.2,14.1c-0.8,4.7-1.4,9.5-1.7,14.3c-0.3,4.8-0.4,9.6-0.2,14.4c0.2,4.8,0.6,9.6,1.3,14.4
					c0.7,4.8,1.6,9.5,2.8,14.2c1.2,4.7,2.6,9.3,4.2,13.8c1.6,4.5,3.5,9,5.6,13.3c2.1,4.3,4.4,8.6,7,12.7c2.5,4.1,5.3,8,8.2,11.9
					c2.9,3.8,6.1,7.5,9.4,11c3.3,3.5,6.8,6.8,10.5,9.9l264.9,264.9l174.5-174.5l90.5-90.5c3.7-3.1,7.1-6.4,10.5-9.9
					c3.3-3.5,6.4-7.1,9.4-10.9c2.9-3.8,5.7-7.7,8.2-11.8c2.5-4.1,4.8-8.3,6.9-12.6c2.1-4.3,4-8.7,5.6-13.3c1.6-4.5,3.1-9.1,4.2-13.8
					c1.2-4.7,2.1-9.4,2.8-14.1s1.1-9.5,1.3-14.3c0.2-4.8,0.1-9.6-0.2-14.4c-0.3-4.8-0.9-9.6-1.7-14.3c-0.8-4.7-1.8-9.4-3.1-14.1
					c-1.3-4.6-2.8-9.2-4.5-13.7c-1.8-4.5-3.7-8.8-5.9-13.1s-4.6-8.4-7.2-12.4c-2.6-4-5.5-7.9-8.5-11.6c-3-3.7-6.2-7.3-9.6-10.7
					l-97.8-97.8l-40.7-40.6V311.6z"/>
			</defs>
			<clipPath id="SVGID_00000181783070252317890730000000192196510289430926_">
				<use xlink:href="#SVGID_00000179606086485864951460000013452641078138751394_"  style="overflow:visible;"/>
			</clipPath>
			<g style="clip-path:url(#SVGID_00000181783070252317890730000000192196510289430926_);">
				<path class="st4" d="M-0.1,311.6h741.6v769.5H-0.1V311.6z"/>
			</g>
		</g>
	</g>
</g>
<path class="st0" d="M370.7,155.8l95.8,95.7V95.7L370.7,0V155.8z"/>
<path class="st0" d="M466.5,298.6l-95.8-95.7v745.3l95.8-95.7V298.6z"/>
</svg>
